<?xml version="1.0" encoding="UTF-8"?>
<svg id="_レイヤー_2" data-name="レイヤー 2" xmlns="http://www.w3.org/2000/svg" width="142.22" height="80" viewBox="0 0 142.22 80">
  <defs>
    <style>
      .cls-1 {
        fill: none;
      }

      .cls-2 {
        fill: #fff;
      }
    </style>
  </defs>
  <g id="_レイヤー_1-2" data-name="レイヤー 1">
    <g>
      <rect class="cls-1" width="142.22" height="80"/>
      <g>
        <path class="cls-2" d="M16.42,78.32l-5.98-9.71h-.06l.08,9.71h-3.48v-14.85h4.09l5.96,9.69h.06l-.08-9.69h3.48v14.85h-4.07Z"/>
        <path class="cls-2" d="M28.14,66.53v3.06h5.75v2.96h-5.75v5.77h-3.55v-14.85h9.77v3.06h-6.23Z"/>
        <path class="cls-2" d="M44.08,66.53v11.79h-3.59v-11.79h-4.2v-3.06h11.98v3.06h-4.2Z"/>
        <path class="cls-2" d="M67.9,78.34c-.97,.24-2.03,.36-3.18,.36s-2.28-.19-3.28-.57c-1-.38-1.86-.91-2.58-1.59-.72-.68-1.28-1.51-1.69-2.46-.41-.96-.61-2.02-.61-3.2s.21-2.27,.62-3.23c.41-.96,.98-1.79,1.71-2.46,.73-.68,1.58-1.2,2.56-1.56,.98-.36,2.03-.55,3.17-.55s2.27,.18,3.27,.53c1.01,.36,1.82,.84,2.45,1.44l-2.27,2.58c-.35-.41-.81-.74-1.38-1-.57-.26-1.22-.39-1.95-.39-.63,0-1.21,.12-1.74,.35-.53,.23-.99,.55-1.38,.96-.39,.41-.7,.9-.91,1.47-.22,.57-.32,1.19-.32,1.86s.1,1.31,.29,1.89c.2,.57,.49,1.07,.87,1.48,.38,.41,.86,.73,1.43,.96s1.21,.35,1.94,.35c.42,0,.82-.03,1.2-.09,.38-.06,.73-.16,1.05-.3v-2.71h-2.83v-2.89h6.12v7.87c-.73,.38-1.58,.69-2.55,.92Z"/>
        <path class="cls-2" d="M74.1,69.3c.62-.59,1.33-1.03,2.15-1.32,.82-.29,1.65-.44,2.51-.44s1.63,.11,2.23,.33c.61,.22,1.1,.55,1.48,1.01,.38,.45,.65,1.03,.83,1.72,.17,.69,.26,1.51,.26,2.46v5.26h-3.15v-1.11h-.06c-.27,.43-.67,.77-1.21,1.01s-1.12,.36-1.75,.36c-.42,0-.85-.06-1.3-.17-.45-.11-.86-.29-1.23-.55-.37-.25-.68-.59-.91-1.01s-.36-.94-.36-1.55c0-.76,.21-1.36,.62-1.82,.41-.46,.94-.82,1.59-1.07,.65-.25,1.37-.42,2.17-.5,.8-.08,1.57-.13,2.33-.13v-.17c0-.52-.18-.9-.55-1.14-.36-.24-.81-.37-1.34-.37-.49,0-.96,.1-1.42,.31-.45,.21-.84,.46-1.16,.76l-1.74-1.87Zm6.31,4.47h-.44c-.38,0-.76,.02-1.14,.05-.38,.04-.73,.1-1.03,.2-.3,.1-.55,.24-.74,.43-.2,.19-.29,.44-.29,.74,0,.2,.05,.36,.14,.5,.09,.14,.21,.25,.35,.34,.14,.08,.3,.14,.48,.18,.18,.04,.36,.05,.52,.05,.7,0,1.23-.19,1.6-.58,.37-.38,.56-.91,.56-1.56v-.36Z"/>
        <path class="cls-2" d="M93.94,70.7c-.15-.04-.3-.07-.45-.08-.15-.01-.29-.02-.43-.02-.46,0-.85,.08-1.16,.25-.31,.17-.57,.37-.76,.61-.19,.24-.32,.5-.41,.77-.08,.28-.13,.52-.13,.73v5.36h-3.44v-10.43h3.31v1.51h.04c.27-.53,.64-.97,1.13-1.31,.49-.34,1.06-.51,1.7-.51,.14,0,.28,0,.41,.02,.13,.01,.24,.04,.33,.06l-.15,3.04Z"/>
        <path class="cls-2" d="M104.43,78.32v-1.36h-.04c-.34,.53-.82,.94-1.44,1.23-.62,.29-1.28,.43-1.98,.43-.78,0-1.48-.15-2.1-.46-.62-.31-1.14-.72-1.56-1.23-.43-.51-.75-1.1-.98-1.77-.22-.67-.34-1.37-.34-2.1s.12-1.42,.35-2.09c.23-.66,.56-1.25,.99-1.75s.94-.9,1.55-1.2c.61-.29,1.29-.44,2.04-.44s1.42,.15,1.95,.44c.53,.29,.94,.62,1.24,.96h.04v-6.52h3.44v15.86h-3.17Zm-.13-5.24c0-.34-.06-.66-.18-.99-.12-.32-.29-.61-.5-.86-.22-.25-.48-.45-.79-.61-.31-.15-.66-.23-1.05-.23s-.76,.08-1.07,.23c-.31,.15-.57,.35-.78,.6-.21,.24-.37,.53-.47,.85-.1,.32-.16,.65-.16,.99s.05,.67,.16,1c.1,.33,.26,.62,.47,.87s.47,.45,.78,.61c.31,.15,.66,.23,1.07,.23s.74-.08,1.05-.23c.31-.15,.57-.36,.79-.61,.22-.25,.38-.54,.5-.86,.12-.32,.18-.65,.18-.99Z"/>
        <path class="cls-2" d="M121.74,73.22v.42c0,.14,0,.27-.02,.4h-7.57c.03,.29,.12,.56,.26,.8,.15,.24,.34,.44,.57,.62,.23,.17,.49,.31,.78,.41,.29,.1,.58,.15,.89,.15,.55,0,1.01-.1,1.38-.3,.38-.2,.68-.46,.92-.79l2.39,1.51c-.49,.71-1.14,1.26-1.94,1.65-.8,.38-1.74,.58-2.8,.58-.78,0-1.52-.12-2.22-.37-.7-.24-1.31-.6-1.84-1.07-.52-.47-.94-1.05-1.24-1.73-.3-.68-.45-1.47-.45-2.35s.15-1.63,.44-2.32c.29-.69,.69-1.28,1.2-1.76,.5-.48,1.1-.86,1.78-1.12,.68-.27,1.43-.4,2.22-.4s1.48,.13,2.12,.39c.64,.26,1.2,.63,1.66,1.12,.46,.49,.82,1.08,1.08,1.78,.26,.7,.39,1.5,.39,2.39Zm-3.17-1.32c0-.55-.17-1.01-.51-1.41-.34-.39-.86-.59-1.54-.59-.34,0-.64,.05-.92,.16-.28,.1-.52,.25-.73,.43-.21,.18-.38,.4-.5,.64-.13,.24-.2,.5-.21,.77h4.43Z"/>
        <path class="cls-2" d="M131.78,78.32v-5.71c0-.29-.02-.57-.07-.84-.05-.27-.13-.5-.24-.7-.11-.2-.27-.36-.47-.48-.2-.12-.46-.18-.77-.18s-.58,.06-.81,.18c-.23,.12-.42,.28-.58,.49-.15,.21-.27,.45-.35,.72s-.12,.56-.12,.85v5.66h-3.46v-10.45h3.34v1.45h.04c.13-.22,.29-.44,.49-.66,.2-.22,.44-.4,.71-.56,.27-.15,.57-.28,.89-.38,.32-.1,.66-.15,1.03-.15,.7,0,1.29,.13,1.78,.38,.49,.25,.88,.58,1.19,.98s.52,.86,.65,1.37c.13,.52,.2,1.04,.2,1.55v6.46h-3.46Z"/>
      </g>
      <g>
        <g>
          <path class="cls-2" d="M92.11,11.36L75.09,1.54c-2.46-1.42-5.5-1.42-7.96,0l-17.02,9.83c-2.46,1.42-3.98,4.05-3.98,6.9v19.65c0,2.85,1.52,5.47,3.98,6.9l17.02,9.83c2.46,1.42,5.5,1.42,7.96,0l17.02-9.83c2.46-1.42,3.98-4.05,3.98-6.9V18.26c0-2.84-1.52-5.47-3.98-6.9Zm-3.29,23.06c0,2.4-1.28,4.63-3.36,5.83l-10.98,6.34c-2.08,1.2-4.65,1.2-6.73,0l-10.98-6.34c-2.08-1.2-3.37-3.42-3.37-5.83v-12.68c0-2.4,1.28-4.63,3.37-5.83l10.98-6.34c2.08-1.2,4.65-1.2,6.73,0l10.98,6.34c2.08,1.2,3.36,3.42,3.36,5.83v12.68Z"/>
          <path class="cls-2" d="M92.11,11.36L75.09,1.54c-2.46-1.42-5.5-1.42-7.96,0l-17.02,9.83c-2.46,1.42-3.98,4.05-3.98,6.9v19.65c0,2.85,1.52,5.47,3.98,6.9l17.02,9.83c2.46,1.42,5.5,1.42,7.96,0l17.02-9.83c2.46-1.42,3.98-4.05,3.98-6.9V18.26c0-2.84-1.52-5.47-3.98-6.9Zm-3.29,23.06c0,2.4-1.28,4.63-3.36,5.83l-10.98,6.34c-2.08,1.2-4.65,1.2-6.73,0l-10.98-6.34c-2.08-1.2-3.37-3.42-3.37-5.83v-12.68c0-2.4,1.28-4.63,3.37-5.83l10.98-6.34c2.08-1.2,4.65-1.2,6.73,0l10.98,6.34c2.08,1.2,3.36,3.42,3.36,5.83v12.68Z"/>
        </g>
        <g>
          <path class="cls-2" d="M59.79,24.31h-2.41v2.61c0,6.52,5.29,11.81,11.81,11.81h2.41v-2.61c0-6.52-5.29-11.81-11.81-11.81Z"/>
          <path class="cls-2" d="M59.79,24.31h-2.41v2.61c0,6.52,5.29,11.81,11.81,11.81h2.41v-2.61c0-6.52-5.29-11.81-11.81-11.81Z"/>
        </g>
        <g>
          <path class="cls-2" d="M71.64,14.11l-.98,.98c-2.44,2.44-2.44,6.41,0,8.85l.9,.9,.98-.98c2.44-2.44,2.44-6.41,0-8.85l-.9-.9Z"/>
          <path class="cls-2" d="M71.64,14.11l-.98,.98c-2.44,2.44-2.44,6.41,0,8.85l.9,.9,.98-.98c2.44-2.44,2.44-6.41,0-8.85l-.9-.9Z"/>
        </g>
        <g>
          <path class="cls-2" d="M73.75,28.65v1.6h1.73c4.31,0,7.8-3.49,7.8-7.8v-1.59h-1.73c-4.31,0-7.8,3.49-7.8,7.8Z"/>
          <path class="cls-2" d="M73.75,28.65v1.6h1.73c4.31,0,7.8-3.49,7.8-7.8v-1.59h-1.73c-4.31,0-7.8,3.49-7.8,7.8Z"/>
        </g>
      </g>
    </g>
  </g>
</svg>