<?xml version="1.0" encoding="UTF-8"?>
<svg id="_レイヤー_2" data-name="レイヤー 2" xmlns="http://www.w3.org/2000/svg" width="80" height="80" viewBox="0 0 80 80">
  <defs>
    <style>
      .cls-1 {
        fill: none;
      }

      .cls-2 {
        fill: #fff;
      }
    </style>
  </defs>
  <g id="_レイヤー_1-2" data-name="レイヤー 1">
    <g>
      <rect class="cls-1" width="80" height="80"/>
      <g>
        <g>
          <path class="cls-2" d="M70.35,15.83L45.75,1.64c-3.56-2.06-7.95-2.06-11.51,0L9.65,15.83c-3.56,2.06-5.75,5.85-5.75,9.97v28.4c0,4.11,2.19,7.91,5.75,9.97l24.59,14.2c3.56,2.06,7.95,2.06,11.51,0l24.59-14.2c3.56-2.06,5.75-5.85,5.75-9.97V25.8c0-4.11-2.19-7.91-5.75-9.97Zm-4.76,33.32c0,3.47-1.85,6.68-4.86,8.42l-15.86,9.16c-3.01,1.74-6.72,1.74-9.72,0l-15.86-9.16c-3.01-1.74-4.86-4.95-4.86-8.42V30.84c0-3.47,1.85-6.68,4.86-8.42l15.86-9.16c3.01-1.74,6.72-1.74,9.72,0l15.86,9.16c3.01,1.74,4.86,4.95,4.86,8.42v18.32Z"/>
          <path class="cls-2" d="M70.35,15.83L45.75,1.64c-3.56-2.06-7.95-2.06-11.51,0L9.65,15.83c-3.56,2.06-5.75,5.85-5.75,9.97v28.4c0,4.11,2.19,7.91,5.75,9.97l24.59,14.2c3.56,2.06,7.95,2.06,11.51,0l24.59-14.2c3.56-2.06,5.75-5.85,5.75-9.97V25.8c0-4.11-2.19-7.91-5.75-9.97Zm-4.76,33.32c0,3.47-1.85,6.68-4.86,8.42l-15.86,9.16c-3.01,1.74-6.72,1.74-9.72,0l-15.86-9.16c-3.01-1.74-4.86-4.95-4.86-8.42V30.84c0-3.47,1.85-6.68,4.86-8.42l15.86-9.16c3.01-1.74,6.72-1.74,9.72,0l15.86,9.16c3.01,1.74,4.86,4.95,4.86,8.42v18.32Z"/>
        </g>
        <g>
          <path class="cls-2" d="M23.64,34.54h-3.49v3.78c0,9.43,7.64,17.07,17.07,17.07h3.49v-3.77c0-9.43-7.64-17.07-17.07-17.07Z"/>
          <path class="cls-2" d="M23.64,34.54h-3.49v3.78c0,9.43,7.64,17.07,17.07,17.07h3.49v-3.77c0-9.43-7.64-17.07-17.07-17.07Z"/>
        </g>
        <g>
          <path class="cls-2" d="M40.76,19.81l-1.41,1.41c-3.53,3.53-3.53,9.26,0,12.79l1.31,1.31,1.41-1.41c3.53-3.53,3.53-9.26,0-12.79l-1.31-1.31Z"/>
          <path class="cls-2" d="M40.76,19.81l-1.41,1.41c-3.53,3.53-3.53,9.26,0,12.79l1.31,1.31,1.41-1.41c3.53-3.53,3.53-9.26,0-12.79l-1.31-1.31Z"/>
        </g>
        <g>
          <path class="cls-2" d="M43.81,40.81v2.3h2.49c6.23,0,11.28-5.05,11.28-11.28v-2.3h-2.49c-6.23,0-11.27,5.05-11.27,11.27Z"/>
          <path class="cls-2" d="M43.81,40.81v2.3h2.49c6.23,0,11.28-5.05,11.28-11.28v-2.3h-2.49c-6.23,0-11.27,5.05-11.27,11.27Z"/>
        </g>
      </g>
    </g>
  </g>
</svg>