<?xml version="1.0" encoding="UTF-8"?>
<svg id="_レイヤー_2" data-name="レイヤー 2" xmlns="http://www.w3.org/2000/svg" width="80" height="80" viewBox="0 0 80 80">
  <defs>
    <style>
      .cls-1 {
        fill: none;
      }

      .cls-2 {
        fill: #fff;
      }
    </style>
  </defs>
  <g id="_レイヤー_1-2" data-name="レイヤー 1">
    <g>
      <rect class="cls-1" width="80" height="80"/>
      <g>
        <path class="cls-2" d="M46.79,73.55c-2.16,0-4.29-.57-6.16-1.65-2.86-1.65-4.9-4.32-5.76-7.51-.86-3.19-.42-6.52,1.23-9.38l2.09-3.62c.08-.13,.2-.23,.35-.27,.05-.01,.1-.02,.15-.02,.1,0,.2,.03,.28,.08l3.94,2.27c.13,.08,.23,.2,.26,.35,.04,.15,.02,.3-.06,.43l-2.09,3.62c-1.84,3.19-.75,7.29,2.45,9.13,1.01,.58,2.16,.89,3.33,.89,2.39,0,4.61-1.28,5.8-3.34,1.81-3.13,.76-7.19-2.33-9.06-.04-.02-.07-.05-.11-.08-.41-.19-.83-.42-1.23-.65-.79-.44-1.9-1.08-3.24-1.85-.38-.22-5.94-3.43-7.71-4.46-.27-.16-.36-.5-.21-.78l2.27-3.94c.11-.18,.3-.28,.49-.28,.1,0,.19,.02,.28,.08,1.83,1.05,8.03,4.6,10.81,6.19,.69,.4,1.11,.63,1.35,.8v-.02c2.87,1.65,4.91,4.32,5.77,7.51,.86,3.19,.42,6.52-1.23,9.38-2.2,3.81-6.31,6.18-10.73,6.18Z"/>
        <path class="cls-2" d="M16.59,64.1c-2.8,0-5.57-.74-8.01-2.15-3.71-2.14-6.37-5.61-7.48-9.76C0,48.04,.56,43.71,2.7,40c2.86-4.95,8.2-8.03,13.94-8.03,2.81,0,5.58,.74,8.01,2.15l6.8,3.95c.27,.16,.36,.5,.21,.78l-2.27,3.94c-.08,.13-.2,.23-.35,.26-.05,.01-.1,.02-.15,.02-.1,0-.2-.03-.29-.08l-6.8-3.96c-1.57-.91-3.36-1.39-5.17-1.39-3.71,0-7.16,1.99-9.01,5.19-2.86,4.96-1.16,11.33,3.8,14.19,1.57,.91,3.36,1.39,5.17,1.39,3.71,0,7.16-1.99,9.01-5.19l9.02-15.53c.11-.18,.3-.28,.49-.28,.1,0,.19,.02,.28,.08l3.94,2.27c.27,.16,.36,.5,.21,.78-1.04,1.8-6.31,10.95-6.31,10.95-.81,1.39-1.48,2.55-1.96,3.35-.24,.41-.49,.82-.77,1.22-.01,.05-.03,.08-.05,.13-2.87,4.88-8.19,7.91-13.87,7.91Z"/>
        <path class="cls-2" d="M42.62,39.28c-.1,0-.19-.02-.28-.08-1.87-1.07-8.14-4.68-8.77-5.05-1.33-.78-2.45-1.44-3.22-1.91-.41-.25-.82-.5-1.2-.79-6.34-3.72-8.51-11.92-4.84-18.29,2.39-4.14,6.85-6.71,11.65-6.71,2.34,0,4.65,.62,6.69,1.8,3.1,1.79,5.32,4.68,6.25,8.15,.93,3.47,.46,7.08-1.33,10.18l-2.69,4.7c-.07,.13-.2,.23-.34,.27-.05,.01-.1,.02-.15,.02-.1,0-.2-.03-.28-.08l-3.94-2.27c-.27-.16-.36-.5-.21-.77l2.69-4.7c2.14-3.7,.86-8.44-2.83-10.58-1.17-.68-2.51-1.04-3.86-1.04-2.77,0-5.34,1.48-6.72,3.87-2.13,3.7-.86,8.44,2.83,10.58l1.91,1.1c.41,.24,8.98,5.3,11.21,6.6,.27,.16,.36,.5,.21,.77l-2.27,3.94c-.11,.18-.3,.28-.49,.28Z"/>
        <path class="cls-2" d="M64.69,49.7c-2.57,0-5.1-.68-7.33-1.97h0s-2.37-1.34-5.73-3.25c-.13-.07-.23-.2-.27-.35-.04-.15-.02-.3,.06-.43l2.27-3.94c.11-.18,.3-.28,.49-.28,.1,0,.19,.02,.28,.07,2.02,1.15,3.97,2.25,5.71,3.24,1.38,.8,2.94,1.21,4.52,1.21,3.24,0,6.25-1.74,7.87-4.53,1.21-2.09,1.53-4.54,.9-6.88-.63-2.34-2.13-4.3-4.22-5.5-1.37-.79-2.94-1.21-4.52-1.21-3.24,0-6.25,1.73-7.86,4.53l-8.41,14.55c-.11,.18-.3,.28-.49,.28-.1,0-.19-.02-.28-.08l-3.94-2.27c-.27-.16-.36-.5-.21-.78,1.52-2.63,8.22-14.24,8.4-14.55,2.62-4.54,7.53-7.37,12.79-7.37,2.57,0,5.11,.68,7.35,1.97,7.04,4.07,9.46,13.1,5.4,20.14-2.63,4.55-7.53,7.38-12.79,7.38Z"/>
      </g>
    </g>
  </g>
</svg>