<?xml version="1.0" encoding="UTF-8"?>
<svg id="_レイヤー_2" data-name="レイヤー 2" xmlns="http://www.w3.org/2000/svg" width="142.22" height="80" viewBox="0 0 142.22 80">
  <defs>
    <style>
      .cls-1 {
        fill: none;
      }

      .cls-2 {
        fill: #fff;
      }
    </style>
  </defs>
  <g id="_レイヤー_1-2" data-name="レイヤー 1">
    <g>
      <rect class="cls-1" width="142.22" height="80"/>
      <g>
        <path class="cls-2" d="M76.5,54.07c-1.71,0-3.4-.45-4.89-1.31-2.27-1.31-3.89-3.42-4.57-5.96-.68-2.53-.33-5.18,.98-7.44l1.66-2.88c.06-.1,.16-.18,.27-.21,.04-.01,.08-.02,.12-.02,.08,0,.16,.02,.23,.06l3.12,1.8c.1,.06,.18,.16,.21,.27,.03,.12,.01,.24-.04,.34l-1.66,2.87c-1.46,2.53-.59,5.78,1.94,7.24,.8,.46,1.72,.71,2.64,.71,1.9,0,3.66-1.02,4.6-2.65,1.43-2.48,.6-5.71-1.85-7.19-.03-.02-.06-.04-.08-.07-.33-.15-.66-.33-.98-.51-.62-.35-1.51-.86-2.57-1.47-.3-.17-4.71-2.72-6.12-3.54-.22-.12-.29-.4-.16-.62l1.8-3.12c.08-.14,.24-.23,.39-.23,.08,0,.15,.02,.22,.06,1.46,.84,6.37,3.65,8.58,4.91,.55,.31,.88,.5,1.07,.64v-.02c2.28,1.31,3.9,3.42,4.58,5.96,.68,2.53,.33,5.18-.98,7.44-1.75,3.02-5.01,4.9-8.51,4.9Z"/>
        <path class="cls-2" d="M52.54,46.56c-2.22,0-4.42-.59-6.35-1.71-2.94-1.7-5.05-4.45-5.93-7.74-.88-3.29-.43-6.73,1.27-9.67,2.27-3.93,6.51-6.37,11.06-6.37,2.23,0,4.42,.59,6.36,1.71l5.39,3.14c.21,.12,.29,.4,.16,.62l-1.8,3.12c-.06,.1-.16,.18-.27,.21-.04,.01-.08,.02-.12,.02-.08,0-.16-.02-.23-.06l-5.4-3.14c-1.25-.72-2.67-1.1-4.1-1.1-2.94,0-5.68,1.58-7.15,4.12-2.27,3.94-.92,8.99,3.02,11.26,1.25,.72,2.67,1.1,4.11,1.1,2.94,0,5.68-1.58,7.15-4.12l7.16-12.32c.08-.14,.23-.22,.39-.22,.08,0,.15,.02,.22,.06l3.12,1.8c.22,.12,.29,.4,.17,.62-.82,1.43-5.01,8.69-5.01,8.69-.64,1.1-1.17,2.02-1.55,2.66-.19,.32-.39,.65-.61,.96-.01,.04-.02,.07-.04,.1-2.28,3.87-6.5,6.28-11.01,6.28Z"/>
        <path class="cls-2" d="M73.19,26.87c-.08,0-.15-.02-.22-.06-1.48-.85-6.46-3.71-6.96-4.01-1.06-.62-1.94-1.14-2.56-1.51-.32-.2-.65-.4-.95-.63-5.03-2.95-6.75-9.46-3.84-14.51,1.9-3.28,5.44-5.32,9.24-5.32,1.86,0,3.69,.49,5.31,1.42,2.46,1.42,4.22,3.72,4.96,6.47,.74,2.75,.36,5.62-1.06,8.08l-2.14,3.73c-.06,.1-.16,.18-.27,.21-.04,.01-.08,.02-.12,.02-.08,0-.16-.02-.23-.06l-3.12-1.8c-.22-.12-.29-.4-.17-.61l2.13-3.73c1.69-2.93,.69-6.7-2.25-8.39-.93-.54-1.99-.82-3.06-.82-2.19,0-4.24,1.18-5.33,3.07-1.69,2.93-.69,6.7,2.25,8.39l1.52,.87c.32,.19,7.13,4.2,8.9,5.24,.21,.13,.29,.4,.16,.61l-1.8,3.13c-.08,.14-.24,.23-.39,.23Z"/>
        <path class="cls-2" d="M90.7,35.14c-2.04,0-4.05-.54-5.82-1.56h0s-1.88-1.06-4.55-2.58c-.1-.06-.18-.16-.21-.27-.03-.12-.02-.24,.04-.34l1.8-3.12c.08-.14,.24-.23,.39-.23,.08,0,.15,.02,.22,.06,1.61,.91,3.15,1.78,4.53,2.57,1.09,.63,2.33,.96,3.59,.96,2.57,0,4.96-1.38,6.24-3.59,.96-1.66,1.21-3.6,.72-5.46-.5-1.86-1.69-3.41-3.35-4.37-1.09-.63-2.33-.96-3.58-.96-2.57,0-4.96,1.38-6.24,3.59l-6.67,11.55c-.08,.14-.24,.23-.39,.23-.08,0-.15-.02-.22-.06l-3.12-1.8c-.22-.12-.29-.4-.17-.62,1.2-2.08,6.53-11.3,6.67-11.55,2.08-3.61,5.97-5.85,10.15-5.85,2.04,0,4.06,.54,5.83,1.57,5.59,3.23,7.51,10.39,4.28,15.98-2.08,3.61-5.97,5.85-10.15,5.85Z"/>
      </g>
      <g>
        <g>
          <path class="cls-2" d="M15.6,78.38c-1.49,0-2.77-.26-3.8-.76-1.04-.5-1.89-1.22-2.53-2.12-.65-.91-1.13-2.02-1.42-3.3-.3-1.28-.45-2.73-.45-4.3,0-1.26,.15-2.4,.44-3.39,.29-.99,.69-1.87,1.18-2.61,.5-.74,1.08-1.38,1.74-1.9,.66-.52,1.36-.95,2.09-1.27,.73-.33,1.49-.56,2.25-.71,.77-.15,1.53-.22,2.25-.22,.45,0,.93,.01,1.43,.04,.5,.03,.99,.07,1.47,.12,.47,.05,.92,.11,1.33,.18,.35,.06,.65,.11,.9,.16l-.67,2.67c-.26-.08-.59-.16-1.03-.24-.49-.1-1-.19-1.55-.28-.55-.09-1.1-.16-1.63-.22-.55-.06-.99-.09-1.34-.09-.4,0-.75,.01-1.06,.03-.31,.02-.6,.07-.87,.14-.26,.07-.52,.16-.75,.28-.24,.12-.47,.27-.71,.45-.62,.44-1.05,1.28-1.26,2.49-.21,1.19-.32,2.69-.32,4.46,0,2.73,.41,4.84,1.22,6.25,.82,1.43,2.16,2.15,3.99,2.15,1.01,0,2.08-.09,3.18-.25,1.04-.16,2-.38,2.87-.67v1.48c-.48,.22-.99,.42-1.54,.59-.57,.18-1.17,.34-1.77,.46-.6,.12-1.22,.22-1.84,.28-.62,.07-1.22,.1-1.78,.1Z"/>
          <path class="cls-2" d="M31.14,78.36c-2.16,0-3.83-.59-4.97-1.76-1.14-1.17-1.72-2.91-1.72-5.17,0-1.07,.14-2.05,.42-2.9,.28-.85,.71-1.59,1.26-2.18,.56-.59,1.26-1.06,2.09-1.38,.83-.32,1.81-.49,2.91-.49,2.2,0,3.89,.6,5,1.79,1.12,1.19,1.69,2.91,1.69,5.12,0,1.08-.14,2.07-.42,2.93-.28,.85-.71,1.59-1.26,2.18-.56,.59-1.26,1.06-2.09,1.38-.83,.32-1.81,.49-2.91,.49Zm.04-12.21c-.37,0-.74,.04-1.1,.11-.36,.08-.69,.2-.96,.37-.17,.1-.31,.3-.43,.6-.11,.28-.2,.65-.27,1.08-.07,.43-.11,.91-.14,1.44-.03,.53-.04,1.08-.04,1.66,0,1.78,.22,3.12,.65,3.96,.44,.87,1.19,1.31,2.23,1.31,.39,0,.76-.03,1.1-.1,.35-.07,.64-.17,.87-.31,.17-.08,.31-.28,.43-.59,.11-.29,.21-.66,.29-1.09,.08-.43,.14-.92,.18-1.46,.04-.55,.05-1.12,.05-1.7,0-1.74-.22-3.06-.66-3.93-.45-.89-1.19-1.35-2.2-1.35Z"/>
          <path class="cls-2" d="M50.3,78.09v-8.98c0-.82-.14-1.44-.4-1.84-.28-.41-.75-.62-1.4-.62-.22,0-.48,.03-.76,.09-.28,.06-.56,.15-.83,.26-.27,.11-.55,.24-.81,.38-.27,.14-.52,.3-.74,.46l-.04,.03v10.22h-3.64v-13.34h3.24l.35,1.58h.12l.07-.02c.26-.18,.58-.37,.95-.58,.37-.21,.78-.41,1.21-.6,.44-.19,.89-.35,1.35-.48,.46-.13,.91-.19,1.36-.19,.5,0,.97,.08,1.4,.25,.43,.16,.81,.41,1.14,.72,.32,.32,.59,.72,.78,1.21,.19,.48,.29,1.06,.29,1.72v9.73h-3.64Z"/>
          <path class="cls-2" d="M67.24,78.09v-8.98c0-.82-.14-1.44-.4-1.84-.28-.41-.75-.62-1.4-.62-.22,0-.48,.03-.76,.09-.28,.06-.56,.15-.83,.26-.28,.11-.55,.24-.81,.38-.27,.14-.52,.3-.74,.46l-.04,.03v10.22h-3.64v-13.34h3.24l.35,1.58h.12l.07-.02c.26-.18,.58-.37,.95-.58,.37-.21,.78-.41,1.21-.6,.44-.19,.89-.35,1.35-.48,.46-.13,.91-.19,1.36-.19,.5,0,.97,.08,1.4,.25,.43,.16,.81,.41,1.14,.72,.32,.32,.59,.72,.78,1.21,.19,.48,.29,1.06,.29,1.72v9.73h-3.64Z"/>
          <path class="cls-2" d="M80.21,78.36c-.79,0-1.54-.12-2.22-.36-.68-.24-1.27-.62-1.76-1.13-.49-.51-.89-1.2-1.18-2.03-.29-.84-.43-1.87-.43-3.07,0-1.35,.17-2.5,.5-3.43,.33-.92,.79-1.68,1.38-2.25,.59-.56,1.29-.98,2.08-1.24,.8-.26,1.67-.39,2.6-.39,.63,0,1.25,.09,1.85,.27,.59,.18,1.15,.48,1.65,.9,.5,.42,.94,1,1.3,1.7,.37,.71,.65,1.62,.84,2.69v.16c-.09,.09-.24,.23-.43,.35-.19,.13-.44,.24-.75,.33-.32,.09-.71,.18-1.18,.26-.46,.08-1.03,.14-1.68,.19l-4.37,.34v.67c0,1.08,.29,1.98,.86,2.68,.58,.71,1.45,1.07,2.59,1.07,.46,0,.95-.05,1.45-.14,.5-.1,.98-.21,1.43-.34,.45-.13,.86-.27,1.24-.41,.31-.12,.56-.22,.75-.31l.27,.8c-.39,.29-.83,.6-1.32,.91-.51,.33-1.06,.62-1.64,.88-.58,.26-1.2,.48-1.84,.64-.64,.17-1.31,.25-1.99,.25Zm.48-12.21c-.25,0-.5,.03-.73,.09-.23,.06-.46,.17-.67,.32-.12,.11-.23,.28-.33,.54-.1,.25-.18,.54-.26,.87-.07,.33-.13,.68-.18,1.04-.04,.36-.07,.72-.07,1.06v.11l4.47-.21v-.11c-.06-.4-.12-.81-.21-1.24-.09-.43-.22-.83-.39-1.19-.17-.36-.39-.67-.65-.91-.27-.25-.6-.38-.97-.38Z"/>
          <path class="cls-2" d="M95.37,78.36c-.79,0-1.55-.12-2.24-.36-.69-.24-1.3-.62-1.79-1.13-.5-.51-.9-1.2-1.2-2.03-.3-.83-.45-1.87-.45-3.07s.16-2.18,.47-3.08c.31-.9,.76-1.67,1.35-2.29,.59-.62,1.33-1.11,2.2-1.44,.88-.33,1.9-.5,3.04-.5,.69,0,1.4,.05,2.11,.15,.67,.1,1.28,.2,1.83,.32l-.6,2.45c-.46-.23-1.01-.45-1.62-.67-.68-.24-1.42-.36-2.2-.36-.33,0-.66,.03-.99,.1-.34,.07-.63,.2-.88,.38-.29,.21-.51,.67-.68,1.42-.16,.72-.24,1.85-.24,3.37,0,.84,.06,1.57,.18,2.15,.12,.59,.3,1.08,.54,1.45,.25,.38,.56,.65,.93,.81,.36,.16,.78,.24,1.25,.24,.72,0,1.48-.08,2.26-.23,.74-.15,1.42-.34,2.03-.59l.29,.81c-.72,.58-1.56,1.07-2.48,1.46-.94,.4-1.99,.6-3.12,.6Z"/>
          <path class="cls-2" d="M106.9,78.36c-.33,0-.66-.03-.97-.1-.31-.06-.59-.19-.83-.37-.24-.18-.44-.43-.59-.76-.15-.33-.22-.77-.22-1.31v-9.38l-1.45-.48v-.68l4.13-2.92,.9,.02,.04,2.38h4.1l-.15,1.3c-.29,.05-.64,.1-1.05,.14-.45,.04-.87,.08-1.28,.11-.49,.04-1.59,.14-1.59,.14v7.71c0,.5,.09,.93,.28,1.27,.2,.37,.6,.55,1.19,.55,.15,0,.35,0,.6-.02,.25-.01,.51-.04,.79-.07,.27-.03,.54-.06,.8-.1,.2-.03,.38-.05,.53-.08v.94c-.31,.19-.66,.39-1.06,.59-.42,.21-.88,.4-1.34,.57-.47,.17-.95,.3-1.43,.4-.48,.1-.94,.15-1.37,.15Z"/>
          <path class="cls-2" d="M115.18,78.09v-13.34h3.64v13.34h-3.64Z"/>
          <path class="cls-2" d="M126.94,78.09c-.37-1.23-.77-2.48-1.18-3.7-.42-1.25-.83-2.42-1.23-3.47-.4-1.05-.78-1.98-1.12-2.74-.35-.77-.64-1.32-.88-1.62-.31-.38-.7-.57-1.16-.57h-.07v-1.08c.13-.02,.3-.05,.49-.08,.24-.04,.5-.07,.78-.11,.28-.04,.55-.07,.82-.09,.27-.02,.5-.03,.71-.03,.46,0,.85,.05,1.17,.14,.31,.09,.57,.27,.79,.55,.23,.28,.49,.78,.78,1.46,.29,.69,.6,1.5,.92,2.41,.32,.91,.64,1.88,.96,2.89,.31,1.01,.6,1.98,.87,2.9l.02,.08h.14l.05-.05c.51-.93,.92-1.78,1.23-2.51,.3-.73,.53-1.42,.69-2.06,.15-.64,.26-1.27,.3-1.86,.04-.59,.07-1.24,.07-1.93,0-.3-.02-.63-.06-1-.03-.3-.06-.53-.1-.69l2.7-.39c.06,.16,.1,.36,.14,.59,.04,.28,.06,.56,.06,.83,0,1.07-.15,2.15-.45,3.22-.3,1.07-.69,2.13-1.16,3.15-.47,1.03-1.01,2.04-1.58,3.02-.57,.96-1.13,1.89-1.67,2.76h-3.03Z"/>
        </g>
        <path class="cls-2" d="M114.64,59.51l2.27-2.38,2.29,2.38-2.29,2.4-2.27-2.4Z"/>
      </g>
    </g>
  </g>
</svg>